<svg xmlns="http://www.w3.org/2000/svg" viewBox="0 0 640 380" width="100%" role="img" aria-label="去水管與地台防水層滲漏示意圖：樓上用水後，水經破損的防水層或去水喉接口滲落下層"><title>去水管與地台防水層滲漏示意圖：樓上用水後，水經破損的防水層或去水喉接口滲落下層</title><defs><marker id="ar" viewBox="0 0 10 10" refX="8" refY="5" markerWidth="6" markerHeight="6" orient="auto-start-reverse"><path d="M0,0 L10,5 L0,10 z" fill="#385890"/></marker></defs><rect width="640" height="380" rx="4" fill="#F2F6FA"/><rect x="44" y="34" width="552" height="288" rx="3" fill="#FFFFFF" stroke="#6F8FB8" stroke-width="2"/><rect x="44" y="178" width="552" height="26" rx="0" fill="#DCE8F4"/><line x1="44" y1="178" x2="596" y2="178" stroke="#6F8FB8" stroke-width="2" stroke-linecap="butt"/><line x1="44" y1="204" x2="596" y2="204" stroke="#6F8FB8" stroke-width="2" stroke-linecap="butt"/><text x="58" y="60" font-family="'Noto Sans TC','PingFang TC','Microsoft JhengHei','Hiragino Sans TC',system-ui,sans-serif" font-size="15" font-weight="600" fill="#6F8FB8" text-anchor="start" letter-spacing="0">樓上單位</text><text x="58" y="232" font-family="'Noto Sans TC','PingFang TC','Microsoft JhengHei','Hiragino Sans TC',system-ui,sans-serif" font-size="15" font-weight="700" fill="#183C70" text-anchor="start" letter-spacing="0">你的單位</text><path d="M186,50 V72" fill="none" stroke="#6F8FB8" stroke-width="4" stroke-linecap="round" stroke-linejoin="round"/><path d="M166,72 H206" fill="none" stroke="#6F8FB8" stroke-width="5" stroke-linecap="round" stroke-linejoin="round"/><path d="M173,82 L165.2,122" fill="none" stroke="#385890" stroke-width="2.5" stroke-linecap="round" stroke-linejoin="round" stroke-opacity="0.75"/><path d="M186,82 L186,122" fill="none" stroke="#385890" stroke-width="2.5" stroke-linecap="round" stroke-linejoin="round" stroke-opacity="0.75"/><path d="M199,82 L206.8,122" fill="none" stroke="#385890" stroke-width="2.5" stroke-linecap="round" stroke-linejoin="round" stroke-opacity="0.75"/><text x="222" y="78" font-family="'Noto Sans TC','PingFang TC','Microsoft JhengHei','Hiragino Sans TC',system-ui,sans-serif" font-size="15" font-weight="600" fill="#385890" text-anchor="start" letter-spacing="0">樓上用水</text><line x1="52" y1="162" x2="286" y2="162" stroke="#6F8FB8" stroke-width="3.5" stroke-linecap="round"/><line x1="334" y1="162" x2="424" y2="162" stroke="#6F8FB8" stroke-width="3.5" stroke-linecap="round"/><line x1="486" y1="162" x2="588" y2="162" stroke="#6F8FB8" stroke-width="3.5" stroke-linecap="round"/><text x="58" y="150" font-family="'Noto Sans TC','PingFang TC','Microsoft JhengHei','Hiragino Sans TC',system-ui,sans-serif" font-size="15" font-weight="600" fill="#385890" text-anchor="start" letter-spacing="0">地台防水層</text><circle cx="310" cy="162" r="18" fill="none" stroke="#183C70" stroke-width="2" stroke-dasharray="4 4"/><path d="M310,168 V202" fill="none" stroke="#385890" stroke-width="2.5" stroke-linecap="round" stroke-linejoin="round" marker-end="url(#ar)"/><rect x="432" y="152" width="46" height="10" rx="2" fill="#FFFFFF" stroke="#6F8FB8" stroke-width="2"/><path d="M455,162 V195 H548" fill="none" stroke="#385890" stroke-width="7" stroke-linecap="round" stroke-linejoin="round"/><circle cx="455" cy="195" r="16" fill="none" stroke="#183C70" stroke-width="2" stroke-dasharray="4 4"/><text x="492" y="150" font-family="'Noto Sans TC','PingFang TC','Microsoft JhengHei','Hiragino Sans TC',system-ui,sans-serif" font-size="15" font-weight="600" fill="#385890" text-anchor="start" letter-spacing="0">去水喉接口</text><ellipse cx="310" cy="210" rx="46" ry="11" fill="#385890" fill-opacity="0.2"/><ellipse cx="310" cy="210" rx="27.6" ry="7" fill="#385890" fill-opacity="0.28"/><path d="M310,227 C314.5,235 315,238.75 310,244 C305,238.75 305.5,235 310,227 Z" fill="#385890" fill-opacity="0.85"/><path d="M310,260.32 C313.96,267.36 314.4,270.66 310,275.28 C305.6,270.66 306.04,267.36 310,260.32 Z" fill="#385890" fill-opacity="0.69"/><path d="M310,293.64 C313.42,299.72 313.8,302.57 310,306.56 C306.2,302.57 306.58,299.72 310,293.64 Z" fill="#385890" fill-opacity="0.53"/><ellipse cx="455" cy="210" rx="40" ry="11" fill="#385890" fill-opacity="0.2"/><ellipse cx="455" cy="210" rx="24" ry="7" fill="#385890" fill-opacity="0.28"/><path d="M455,228.65 C458.825,235.45 459.25,238.637 455,243.1 C450.75,238.637 451.175,235.45 455,228.65 Z" fill="#385890" fill-opacity="0.85"/><path d="M455,261.97 C458.285,267.81 458.65,270.548 455,274.38 C451.35,270.548 451.715,267.81 455,261.97 Z" fill="#385890" fill-opacity="0.69"/><text x="58" y="306" font-family="'Noto Sans TC','PingFang TC','Microsoft JhengHei','Hiragino Sans TC',system-ui,sans-serif" font-size="15" font-weight="600" fill="#385890" text-anchor="start" letter-spacing="0">用水後水痕擴大</text><rect x="44" y="336" width="552" height="30" rx="3" fill="#DCE8F4"/><text x="320" y="356" font-family="'Noto Sans TC','PingFang TC','Microsoft JhengHei','Hiragino Sans TC',system-ui,sans-serif" font-size="16" font-weight="600" fill="#183C70" text-anchor="middle" letter-spacing="0">沖涼、洗碗或沖廁後明顯加劇</text></svg>